<?xml version="1.0" encoding="UTF-8"?><svg id="_レイヤー_1" xmlns="http://www.w3.org/2000/svg" viewBox="0 0 312.65 36.18"><defs><style>.cls-1{fill:#231815;stroke-width:0px;}</style></defs><path class="cls-1" d="m20.32,27.58H0v-1.33c1.07,0,1.86-.09,2.36-.27.51-.18.84-.53,1-1.05.16-.52.23-1.29.23-2.3V7.03c0-1.02-.07-1.8-.21-2.34-.14-.55-.48-.92-1-1.13-.52-.21-1.3-.31-2.34-.31v-1.33h11.68v1.33c-1.07,0-1.88.11-2.42.33-.55.22-.92.61-1.11,1.15-.2.55-.29,1.33-.29,2.34v16.49c0,.89.21,1.47.63,1.74.42.27,1.2.41,2.34.41h1.99c1.22,0,2.23-.1,3.01-.29s1.41-.52,1.88-.98c.47-.46.87-1.07,1.19-1.84.33-.77.67-1.71,1.04-2.83h1.48l-1.13,7.81Z"/><path class="cls-1" d="m32.39,27.97c-2.84,0-5.05-.83-6.62-2.5-1.58-1.67-2.36-4.1-2.36-7.31,0-1.88.36-3.53,1.07-4.96.72-1.43,1.75-2.55,3.11-3.36,1.35-.81,2.97-1.21,4.84-1.21,2.81,0,4.99.83,6.54,2.48,1.55,1.65,2.32,3.91,2.32,6.78,0,2.21-.36,4.07-1.09,5.57-.73,1.5-1.77,2.62-3.11,3.38-1.34.75-2.91,1.13-4.71,1.13Zm.16-1.68c.99,0,1.82-.26,2.48-.78.66-.52,1.15-1.37,1.47-2.56.31-1.18.47-2.79.47-4.82,0-2.4-.39-4.31-1.17-5.74-.78-1.43-1.97-2.15-3.56-2.15-1.41,0-2.5.64-3.28,1.91-.78,1.28-1.17,3.13-1.17,5.55,0,2.99.4,5.18,1.21,6.56s1.99,2.06,3.56,2.03Z"/><path class="cls-1" d="m59.11,21.53l.82.59c-.5,1.07-1.07,2.05-1.72,2.95-.65.9-1.47,1.61-2.46,2.13-.99.52-2.24.78-3.75.78-1.67,0-3.11-.38-4.32-1.13-1.21-.76-2.15-1.82-2.81-3.2-.66-1.38-1-3.01-1-4.88,0-2.03.35-3.8,1.05-5.31.7-1.51,1.74-2.69,3.11-3.54,1.37-.85,3.04-1.27,5.02-1.27s3.53.4,4.65,1.21c1.12.81,1.68,1.8,1.68,2.97,0,.65-.18,1.15-.55,1.48-.36.34-.85.51-1.45.51s-1.1-.16-1.43-.47c-.33-.31-.58-.7-.76-1.15-.18-.46-.36-.91-.55-1.37-.18-.46-.45-.84-.8-1.15-.35-.31-.88-.47-1.58-.47-1.46,0-2.57.57-3.34,1.72-.77,1.15-1.15,2.81-1.15,5,0,2.32.44,4.19,1.33,5.61.89,1.42,2.34,2.13,4.38,2.13,1.3,0,2.36-.25,3.16-.76.81-.51,1.63-1.3,2.46-2.36Z"/><path class="cls-1" d="m66.81,27.89c-1.48,0-2.65-.39-3.5-1.17-.85-.78-1.27-1.85-1.27-3.2,0-1.07.24-1.97.72-2.7.48-.73,1.11-1.34,1.89-1.84.78-.49,1.63-.9,2.56-1.23.92-.33,1.83-.61,2.72-.84.89-.23,1.68-.46,2.38-.66v-1.8c0-1.67-.25-2.83-.76-3.48-.51-.65-1.31-.98-2.4-.98-1.02,0-1.67.21-1.97.64s-.45,1.23-.45,2.4c0,.68-.18,1.18-.55,1.5s-.85.49-1.45.49c-.44,0-.87-.17-1.27-.51-.4-.34-.61-.87-.61-1.6s.29-1.43.86-2.09c.57-.66,1.39-1.2,2.44-1.6s2.3-.61,3.73-.61c2.24,0,3.87.48,4.88,1.45,1.02.96,1.52,2.49,1.52,4.57v8.75c0,.81.09,1.33.27,1.56.18.23.48.35.9.35.36,0,.7-.1,1-.29.3-.2.59-.44.88-.72l.66.7c-.65.94-1.3,1.65-1.95,2.13-.65.48-1.55.72-2.7.72-1.07,0-1.77-.25-2.11-.76-.34-.51-.57-1.26-.7-2.25l-.23-.59v-6.64c-1.12.29-2.14.62-3.07,1-.93.38-1.67.87-2.23,1.48-.56.61-.84,1.41-.84,2.4s.22,1.71.66,2.25c.44.53,1.05.8,1.84.8.63,0,1.27-.16,1.93-.47.66-.31,1.35-.79,2.05-1.45l.27,1.64h-.51c-.6.52-1.17.98-1.7,1.39-.53.4-1.11.71-1.72.92-.61.21-1.35.31-2.21.31Z"/><path class="cls-1" d="m90.79,27.58h-9.77v-1.25c.86,0,1.48-.08,1.88-.25s.63-.46.72-.88c.09-.42.14-.99.14-1.72V4.14c0-.81-.16-1.29-.49-1.45-.33-.16-.74-.23-1.23-.23-.31,0-.72.03-1.21.08v-1.21l5.43-1.33h1.48v23.48c0,.76.06,1.34.18,1.76s.39.7.82.86c.43.16,1.11.23,2.05.23v1.25Z"/><path class="cls-1" d="m115.33,28.01c-4.25,0-7.42-1.15-9.53-3.46s-3.16-5.54-3.16-9.71c0-2.97.56-5.44,1.68-7.42,1.12-1.98,2.65-3.47,4.59-4.47,1.94-1,4.15-1.5,6.62-1.5,1.41,0,2.53.12,3.36.35.83.23,1.5.47,1.99.7.49.23.9.35,1.21.35.36,0,.63-.14.8-.41.17-.27.36-.61.57-1h1.33v9.1h-1.52c-.47-2.6-1.35-4.47-2.66-5.61-1.3-1.13-3-1.7-5.08-1.7-2.66,0-4.68.98-6.07,2.93s-2.09,4.66-2.09,8.13c0,3.93.72,6.88,2.15,8.83,1.43,1.95,3.49,2.93,6.17,2.93,1.2,0,2.21-.16,3.03-.49.82-.33,1.62-.79,2.4-1.39v-3.95c0-.94-.08-1.65-.23-2.13-.16-.48-.48-.81-.98-.98-.5-.17-1.24-.25-2.23-.25v-1.41h10.08v1.41c-1.09,0-1.8.19-2.13.57-.33.38-.49,1.18-.49,2.4v5.51c-1.41.81-2.85,1.45-4.34,1.93-1.48.48-3.31.72-5.47.72Z"/><path class="cls-1" d="m137.91,27.97c-1.72,0-3.04-.52-3.97-1.56-.93-1.04-1.39-2.88-1.39-5.51v-7.81c0-.73-.07-1.26-.21-1.6-.14-.34-.41-.55-.8-.64-.39-.09-.94-.14-1.64-.14v-1.25l5.51-.55h1.13v11.29c0,1.3.14,2.3.43,2.99.29.69.68,1.17,1.17,1.45.49.27,1.05.41,1.68.41.94,0,1.74-.2,2.4-.59.66-.39,1.37-.91,2.13-1.56v-9.88c0-.7-.09-1.22-.27-1.54-.18-.33-.5-.53-.96-.63-.46-.09-1.11-.14-1.97-.14v-1.25l6.06-.55h1.13v14.03c0,1.17.17,1.91.51,2.23.34.31.99.47,1.95.47h.35v1.17l-5.55.98h-1.05v-3.13h-.2c-.73.76-1.43,1.38-2.09,1.88-.66.5-1.35.86-2.05,1.09-.7.23-1.47.35-2.3.35Z"/><path class="cls-1" d="m162.87,27.58h-9.65v-1.25c.86,0,1.48-.08,1.88-.23.39-.16.64-.44.74-.86.1-.42.16-.99.16-1.72v-10.59c0-.86-.15-1.39-.45-1.58-.3-.2-.75-.29-1.35-.29-.26,0-.59.03-.98.08v-1.29l5.24-1.09h1.52v14.73c0,.76.06,1.34.18,1.76s.38.7.8.86c.42.16,1.05.23,1.91.23v1.25Zm-4.88-21.68c-.73,0-1.33-.24-1.8-.72-.47-.48-.7-1.07-.7-1.78s.23-1.29.68-1.76c.46-.47,1.06-.7,1.82-.7.81,0,1.43.23,1.88.7.44.47.66,1.05.66,1.76s-.22,1.3-.66,1.78c-.44.48-1.07.72-1.88.72Z"/><path class="cls-1" d="m171.78,27.93c-1.48,0-2.72-.4-3.71-1.19-.99-.79-1.73-1.87-2.23-3.22-.5-1.35-.74-2.86-.74-4.53,0-2.24.4-4.13,1.19-5.66.79-1.54,1.88-2.7,3.24-3.5s2.87-1.19,4.51-1.19c.6,0,1.21.07,1.84.21s1.24.37,1.84.68h.16v-4.88c0-.86-.1-1.42-.29-1.68-.2-.26-.67-.39-1.43-.39-.18,0-.53.03-1.05.08v-1.29l5.31-1.37h1.45v23.32c0,.99.14,1.63.43,1.93.29.3.79.45,1.52.45h.82v1.25l-5.63.82h-1.05v-2.62h-.16c-.73.65-1.59,1.28-2.58,1.88s-2.14.9-3.44.9Zm2.03-2.97c.86,0,1.58-.12,2.17-.37.59-.25,1.22-.61,1.89-1.07v-10.04c-.18-.75-.56-1.45-1.13-2.09-.57-.64-1.45-.96-2.62-.96-1.46,0-2.62.58-3.5,1.74-.87,1.16-1.31,2.96-1.31,5.41,0,2.61.38,4.49,1.15,5.65.77,1.16,1.88,1.74,3.34,1.74Z"/><path class="cls-1" d="m195.33,27.97c-1.67,0-3.14-.36-4.43-1.09s-2.29-1.82-3.01-3.26c-.72-1.45-1.07-3.21-1.07-5.29,0-2.19.39-4,1.17-5.43s1.82-2.5,3.13-3.2c1.3-.7,2.75-1.05,4.34-1.05,2.24,0,4.04.74,5.39,2.23,1.35,1.48,2.07,3.63,2.15,6.45h-12.58l-.04-1.56h8.2c-.03-1.02-.17-1.94-.43-2.77-.26-.83-.66-1.5-1.19-1.99-.53-.49-1.23-.74-2.09-.74-1.41,0-2.44.57-3.11,1.72-.66,1.15-1,2.83-1,5.04,0,1.77.26,3.22.78,4.36.52,1.13,1.22,1.97,2.11,2.5.89.53,1.88.8,2.97.8s1.91-.13,2.6-.39c.69-.26,1.28-.61,1.76-1.05.48-.44.93-.94,1.35-1.48l.82.63c-.36.73-.77,1.44-1.21,2.13-.44.69-.96,1.3-1.54,1.82-.59.52-1.29.93-2.11,1.23-.82.3-1.8.45-2.95.45Z"/><path class="cls-1" d="m218.38,28.05c-.86,0-1.67-.1-2.42-.31-.76-.21-1.36-.55-1.82-1.04-.46-.48-.68-1.11-.68-1.89,0-.65.17-1.17.51-1.54.34-.38.81-.57,1.41-.57.52,0,.93.13,1.23.39.3.26.55.58.74.96s.38.76.57,1.15c.18.39.38.72.59.98.21.26.49.39.86.39.76,0,1.25-.3,1.48-.9.23-.6.35-1.6.35-3.01V7.23c0-1.02-.07-1.82-.2-2.4-.13-.59-.47-1-1.02-1.23-.55-.23-1.45-.35-2.7-.35v-1.33h11.84v1.33c-1.09,0-1.9.12-2.42.35-.52.23-.85.64-1,1.23-.14.59-.21,1.39-.21,2.4v14.26c0,1.36-.19,2.46-.57,3.32-.38.86-.9,1.53-1.56,2.01-.66.48-1.43.81-2.29.98-.86.17-1.76.25-2.7.25Z"/><path class="cls-1" d="m236,27.89c-1.48,0-2.65-.39-3.5-1.17-.85-.78-1.27-1.85-1.27-3.2,0-1.07.24-1.97.72-2.7.48-.73,1.11-1.34,1.89-1.84.78-.49,1.63-.9,2.56-1.23.92-.33,1.83-.61,2.72-.84.89-.23,1.68-.46,2.38-.66v-1.8c0-1.67-.25-2.83-.76-3.48-.51-.65-1.31-.98-2.4-.98-1.02,0-1.67.21-1.97.64s-.45,1.23-.45,2.4c0,.68-.18,1.18-.55,1.5s-.85.49-1.45.49c-.44,0-.87-.17-1.27-.51-.4-.34-.61-.87-.61-1.6s.29-1.43.86-2.09c.57-.66,1.39-1.2,2.44-1.6s2.3-.61,3.73-.61c2.24,0,3.87.48,4.88,1.45,1.02.96,1.52,2.49,1.52,4.57v8.75c0,.81.09,1.33.27,1.56.18.23.48.35.9.35.36,0,.7-.1,1-.29.3-.2.59-.44.88-.72l.66.7c-.65.94-1.3,1.65-1.95,2.13-.65.48-1.55.72-2.7.72-1.07,0-1.77-.25-2.11-.76-.34-.51-.57-1.26-.7-2.25l-.23-.59v-6.64c-1.12.29-2.14.62-3.07,1-.93.38-1.67.87-2.23,1.48-.56.61-.84,1.41-.84,2.4s.22,1.71.66,2.25c.44.53,1.05.8,1.84.8.63,0,1.27-.16,1.93-.47.66-.31,1.35-.79,2.05-1.45l.27,1.64h-.51c-.6.52-1.17.98-1.7,1.39-.53.4-1.11.71-1.72.92-.61.21-1.35.31-2.21.31Z"/><path class="cls-1" d="m260.54,36.18h-10.63v-1.25c1.22,0,2.01-.2,2.34-.59.34-.39.51-1.13.51-2.23V13.05c0-.78-.08-1.31-.25-1.6-.17-.29-.58-.43-1.23-.43-.26,0-.68.03-1.25.08v-1.29l5.27-1.09h1.37v3.28h.16c.96-1.07,1.93-1.89,2.89-2.48.96-.59,2.03-.88,3.2-.88,1.3,0,2.43.35,3.4,1.05.96.7,1.72,1.71,2.27,3.01.55,1.3.82,2.87.82,4.69,0,2.21-.38,4.11-1.15,5.68s-1.8,2.79-3.11,3.63c-1.3.85-2.75,1.27-4.34,1.27-.73,0-1.42-.08-2.07-.23-.65-.16-1.26-.43-1.84-.82h-.16v4.92c0,.83.1,1.47.31,1.91.21.44.59.74,1.13.9.55.16,1.33.23,2.34.23v1.29Zm.12-9.92c1.28,0,2.33-.62,3.16-1.86.83-1.24,1.25-3.21,1.25-5.92,0-2.4-.36-4.14-1.07-5.23-.72-1.09-1.73-1.64-3.03-1.64-.96,0-1.81.25-2.54.76s-1.29,1-1.68,1.47v10.04c.23.26.53.58.9.96.36.38.79.71,1.29,1,.49.29,1.07.43,1.72.43Z"/><path class="cls-1" d="m276.91,27.89c-1.48,0-2.65-.39-3.5-1.17-.85-.78-1.27-1.85-1.27-3.2,0-1.07.24-1.97.72-2.7.48-.73,1.11-1.34,1.89-1.84.78-.49,1.63-.9,2.56-1.23.92-.33,1.83-.61,2.72-.84.89-.23,1.68-.46,2.38-.66v-1.8c0-1.67-.25-2.83-.76-3.48-.51-.65-1.31-.98-2.4-.98-1.02,0-1.67.21-1.97.64s-.45,1.23-.45,2.4c0,.68-.18,1.18-.55,1.5s-.85.49-1.45.49c-.44,0-.87-.17-1.27-.51-.4-.34-.61-.87-.61-1.6s.29-1.43.86-2.09c.57-.66,1.39-1.2,2.44-1.6s2.3-.61,3.73-.61c2.24,0,3.87.48,4.88,1.45,1.02.96,1.52,2.49,1.52,4.57v8.75c0,.81.09,1.33.27,1.56.18.23.48.35.9.35.36,0,.7-.1,1-.29.3-.2.59-.44.88-.72l.66.7c-.65.94-1.3,1.65-1.95,2.13-.65.48-1.55.72-2.7.72-1.07,0-1.77-.25-2.11-.76-.34-.51-.57-1.26-.7-2.25l-.23-.59v-6.64c-1.12.29-2.14.62-3.07,1-.93.38-1.67.87-2.23,1.48-.56.61-.84,1.41-.84,2.4s.22,1.71.66,2.25c.44.53,1.05.8,1.84.8.63,0,1.27-.16,1.93-.47.66-.31,1.35-.79,2.05-1.45l.27,1.64h-.51c-.6.52-1.17.98-1.7,1.39-.53.4-1.11.71-1.72.92-.61.21-1.35.31-2.21.31Z"/><path class="cls-1" d="m300.85,27.58h-9.61v-1.25c.86,0,1.48-.08,1.86-.25.38-.17.61-.46.7-.88.09-.42.14-.98.14-1.68v-10.7c0-.7-.14-1.17-.41-1.39-.27-.22-.67-.33-1.19-.33-.34,0-.69.03-1.05.08v-1.29l5.27-1.13h1.29v3.63l.12.9v10.24c0,.7.05,1.26.16,1.68.1.42.36.71.76.88.4.17,1.06.25,1.97.25v1.25Zm11.8,0h-9.61v-1.25c.89,0,1.52-.08,1.91-.25.39-.17.64-.46.74-.86.1-.4.16-.97.16-1.7v-6.8c0-1.43-.16-2.53-.47-3.28-.31-.76-.74-1.26-1.27-1.52-.53-.26-1.11-.39-1.74-.39-.7,0-1.34.13-1.89.39-.56.26-1.07.59-1.52.98-.46.39-.91.77-1.35,1.13l-.23-2.11h.63c1.04-.94,2.03-1.72,2.97-2.34.94-.63,2.02-.94,3.24-.94,1.85,0,3.25.61,4.2,1.82.95,1.21,1.43,2.99,1.43,5.33v7.74c0,.7.06,1.26.18,1.68.12.42.38.71.78.88.4.17,1.02.25,1.86.25v1.25Z"/></svg>